<svg width="261" height="351" viewBox="0 0 261 351" fill="none" xmlns="http://www.w3.org/2000/svg">
<rect width="261" height="351" rx="12" fill="#3748A6"/>
<path d="M40.128 57H36L29.784 48.312V57H26.16V39.864H29.784V48.168L35.928 39.864H39.792L33.552 48.096L40.128 57ZM45.453 49.08C45.453 49.352 45.437 49.688 45.405 50.088C45.389 50.488 45.365 50.896 45.333 51.312C45.317 51.728 45.293 52.096 45.261 52.416C45.229 52.736 45.205 52.96 45.189 53.088L51.237 43.896H55.533V57H52.077V51.768C52.077 51.336 52.093 50.864 52.125 50.352C52.157 49.824 52.189 49.336 52.221 48.888C52.269 48.424 52.301 48.072 52.317 47.832L46.293 57H41.997V43.896H45.453V49.08ZM70.1184 46.584H65.8224V57H62.2464V46.584H57.9504V43.896H70.1184V46.584ZM84.2057 50.424C84.2057 51.512 84.0537 52.48 83.7497 53.328C83.4617 54.176 83.0377 54.896 82.4777 55.488C81.9337 56.064 81.2697 56.504 80.4857 56.808C79.7017 57.096 78.8137 57.24 77.8217 57.24C76.9097 57.24 76.0617 57.096 75.2777 56.808C74.5097 56.504 73.8457 56.064 73.2857 55.488C72.7257 54.896 72.2857 54.176 71.9657 53.328C71.6617 52.48 71.5097 51.512 71.5097 50.424C71.5097 48.968 71.7657 47.744 72.2777 46.752C72.7897 45.744 73.5257 44.976 74.4857 44.448C75.4457 43.92 76.5817 43.656 77.8937 43.656C79.1257 43.656 80.2137 43.92 81.1577 44.448C82.1017 44.976 82.8457 45.744 83.3897 46.752C83.9337 47.744 84.2057 48.968 84.2057 50.424ZM75.1577 50.424C75.1577 51.288 75.2457 52.016 75.4217 52.608C75.6137 53.184 75.9097 53.624 76.3097 53.928C76.7097 54.216 77.2297 54.36 77.8697 54.36C78.5097 54.36 79.0217 54.216 79.4057 53.928C79.8057 53.624 80.0937 53.184 80.2697 52.608C80.4617 52.016 80.5577 51.288 80.5577 50.424C80.5577 49.56 80.4617 48.84 80.2697 48.264C80.0937 47.688 79.8057 47.256 79.4057 46.968C79.0057 46.68 78.4857 46.536 77.8457 46.536C76.9017 46.536 76.2137 46.864 75.7817 47.52C75.3657 48.16 75.1577 49.128 75.1577 50.424ZM86.3691 49.152C86.3691 47.216 86.6091 45.576 87.0891 44.232C87.5691 42.872 88.3291 41.792 89.3691 40.992C90.4091 40.176 91.7691 39.624 93.4491 39.336C94.2971 39.192 95.1531 39.072 96.0171 38.976C96.8971 38.864 97.8011 38.752 98.7291 38.64L99.1371 41.76C98.7371 41.808 98.2971 41.864 97.8171 41.928C97.3371 41.976 96.8491 42.032 96.3531 42.096C95.8731 42.144 95.4091 42.2 94.9611 42.264C94.5131 42.328 94.1051 42.384 93.7371 42.432C93.1451 42.528 92.6251 42.664 92.1771 42.84C91.7291 43 91.3531 43.232 91.0491 43.536C90.7451 43.84 90.5051 44.256 90.3291 44.784C90.1691 45.296 90.0651 45.96 90.0171 46.776H90.1851C90.3771 46.472 90.6411 46.168 90.9771 45.864C91.3291 45.56 91.7611 45.304 92.2731 45.096C92.7851 44.888 93.3691 44.784 94.0251 44.784C95.0651 44.784 95.9691 45 96.7371 45.432C97.5051 45.864 98.0971 46.504 98.5131 47.352C98.9291 48.2 99.1371 49.256 99.1371 50.52C99.1371 52.008 98.8651 53.248 98.3211 54.24C97.7771 55.232 97.0251 55.984 96.0651 56.496C95.1051 56.992 93.9931 57.24 92.7291 57.24C91.7691 57.24 90.8971 57.064 90.1131 56.712C89.3291 56.36 88.6571 55.84 88.0971 55.152C87.5371 54.464 87.1051 53.616 86.8011 52.608C86.5131 51.6 86.3691 50.448 86.3691 49.152ZM92.9451 54.336C93.4571 54.336 93.8971 54.224 94.2651 54C94.6491 53.776 94.9451 53.408 95.1531 52.896C95.3771 52.384 95.4891 51.696 95.4891 50.832C95.4891 49.792 95.3131 48.968 94.9611 48.36C94.6251 47.736 94.0331 47.424 93.1851 47.424C92.6731 47.424 92.1931 47.552 91.7451 47.808C91.3131 48.048 90.9451 48.328 90.6411 48.648C90.3371 48.952 90.1291 49.216 90.0171 49.44C90.0171 50.064 90.0651 50.672 90.1611 51.264C90.2571 51.84 90.4171 52.36 90.6411 52.824C90.8651 53.288 91.1611 53.656 91.5291 53.928C91.9131 54.2 92.3851 54.336 92.9451 54.336ZM118.069 38.256C117.989 39.088 117.757 39.824 117.373 40.464C116.989 41.088 116.389 41.576 115.573 41.928C114.757 42.28 113.661 42.456 112.285 42.456C110.877 42.456 109.773 42.288 108.973 41.952C108.189 41.6 107.629 41.112 107.293 40.488C106.957 39.864 106.757 39.12 106.693 38.256H109.885C109.965 39.136 110.189 39.72 110.557 40.008C110.925 40.296 111.525 40.44 112.357 40.44C113.045 40.44 113.605 40.288 114.037 39.984C114.485 39.664 114.749 39.088 114.829 38.256H118.069ZM105.445 43.896H109.357L111.829 51.264C111.909 51.504 111.973 51.744 112.021 51.984C112.085 52.224 112.133 52.472 112.165 52.728C112.213 52.984 112.245 53.256 112.261 53.544H112.333C112.381 53.128 112.445 52.736 112.525 52.368C112.621 51.984 112.725 51.616 112.837 51.264L115.261 43.896H119.101L113.557 58.68C113.221 59.576 112.781 60.328 112.237 60.936C111.709 61.544 111.093 62 110.389 62.304C109.685 62.608 108.917 62.76 108.085 62.76C107.685 62.76 107.333 62.736 107.029 62.688C106.741 62.656 106.485 62.616 106.261 62.568V59.736C106.437 59.768 106.645 59.8 106.885 59.832C107.141 59.864 107.405 59.88 107.677 59.88C108.173 59.88 108.597 59.776 108.949 59.568C109.317 59.36 109.621 59.072 109.861 58.704C110.101 58.352 110.293 57.968 110.437 57.552L110.653 56.904L105.445 43.896ZM131.517 61.704V57H129.909L124.557 50.352V57H120.981V43.896H124.557V50.256L129.573 43.896H133.509L128.325 50.184L131.805 54.384H134.733V61.704H131.517ZM140.398 49.08C140.398 49.352 140.382 49.688 140.35 50.088C140.334 50.488 140.31 50.896 140.278 51.312C140.262 51.728 140.238 52.096 140.206 52.416C140.174 52.736 140.15 52.96 140.134 53.088L146.182 43.896H150.478V57H147.022V51.768C147.022 51.336 147.038 50.864 147.07 50.352C147.102 49.824 147.134 49.336 147.166 48.888C147.214 48.424 147.246 48.072 147.262 47.832L141.238 57H136.942V43.896H140.398V49.08ZM173.728 43.896V57H154.216V43.896H157.792V54.312H162.184V43.896H165.76V54.312H170.152V43.896H173.728ZM181.042 43.896V48.936H186.034V43.896H189.61V57H186.034V51.6H181.042V57H177.466V43.896H181.042ZM196.812 49.08C196.812 49.352 196.796 49.688 196.764 50.088C196.748 50.488 196.724 50.896 196.692 51.312C196.676 51.728 196.652 52.096 196.62 52.416C196.588 52.736 196.564 52.96 196.548 53.088L202.596 43.896H206.892V57H203.436V51.768C203.436 51.336 203.452 50.864 203.484 50.352C203.516 49.824 203.548 49.336 203.58 48.888C203.628 48.424 203.66 48.072 203.676 47.832L197.652 57H193.356V43.896H196.812V49.08ZM31.272 75.656C32.488 75.656 33.528 75.888 34.392 76.352C35.272 76.816 35.952 77.488 36.432 78.368C36.912 79.248 37.152 80.328 37.152 81.608V83.336H28.704C28.736 84.344 29.032 85.136 29.592 85.712C30.168 86.288 30.96 86.576 31.968 86.576C32.816 86.576 33.584 86.496 34.272 86.336C34.96 86.16 35.672 85.896 36.408 85.544V88.304C35.768 88.624 35.088 88.856 34.368 89C33.664 89.16 32.808 89.24 31.8 89.24C30.488 89.24 29.328 89 28.32 88.52C27.312 88.024 26.52 87.28 25.944 86.288C25.368 85.296 25.08 84.048 25.08 82.544C25.08 81.008 25.336 79.736 25.848 78.728C26.376 77.704 27.104 76.936 28.032 76.424C28.96 75.912 30.04 75.656 31.272 75.656ZM31.296 78.2C30.608 78.2 30.032 78.424 29.568 78.872C29.12 79.32 28.856 80.016 28.776 80.96H33.792C33.792 80.432 33.696 79.96 33.504 79.544C33.328 79.128 33.056 78.8 32.688 78.56C32.32 78.32 31.856 78.2 31.296 78.2ZM27.072 72.536C27.072 71.976 27.232 71.576 27.552 71.336C27.872 71.08 28.256 70.952 28.704 70.952C29.152 70.952 29.536 71.08 29.856 71.336C30.192 71.576 30.36 71.976 30.36 72.536C30.36 73.064 30.192 73.456 29.856 73.712C29.536 73.968 29.152 74.096 28.704 74.096C28.256 74.096 27.872 73.968 27.552 73.712C27.232 73.456 27.072 73.064 27.072 72.536ZM31.8 72.536C31.8 71.976 31.96 71.576 32.28 71.336C32.6 71.08 32.992 70.952 33.456 70.952C33.904 70.952 34.288 71.08 34.608 71.336C34.944 71.576 35.112 71.976 35.112 72.536C35.112 73.064 34.944 73.456 34.608 73.712C34.288 73.968 33.904 74.096 33.456 74.096C33.008 74.096 32.616 73.968 32.28 73.712C31.96 73.456 31.8 73.064 31.8 72.536ZM50.5877 93.704V89H48.9797L43.6277 82.352V89H40.0517V75.896H43.6277V82.256L48.6437 75.896H52.5797L47.3957 82.184L50.8757 86.384H53.8037V93.704H50.5877ZM66.8606 78.584H62.5646V89H58.9886V78.584H54.6926V75.896H66.8606V78.584ZM72.7343 81.08C72.7343 81.352 72.7183 81.688 72.6863 82.088C72.6703 82.488 72.6463 82.896 72.6143 83.312C72.5983 83.728 72.5743 84.096 72.5423 84.416C72.5103 84.736 72.4863 84.96 72.4703 85.088L78.5183 75.896H82.8143V89H79.3583V83.768C79.3583 83.336 79.3743 82.864 79.4062 82.352C79.4383 81.824 79.4703 81.336 79.5023 80.888C79.5503 80.424 79.5823 80.072 79.5983 79.832L73.5742 89H69.2783V75.896H72.7343V81.08ZM93.8477 75.656C95.3197 75.656 96.5117 76.232 97.4237 77.384C98.3357 78.52 98.7917 80.2 98.7917 82.424C98.7917 83.912 98.5757 85.168 98.1437 86.192C97.7117 87.2 97.1197 87.96 96.3677 88.472C95.6157 88.984 94.7437 89.24 93.7517 89.24C93.1277 89.24 92.5837 89.16 92.1197 89C91.6717 88.84 91.2877 88.632 90.9677 88.376C90.6477 88.12 90.3677 87.848 90.1277 87.56H89.9357C89.9997 87.864 90.0477 88.184 90.0797 88.52C90.1117 88.84 90.1277 89.16 90.1277 89.48V94.76H86.5517V75.896H89.4557L89.9597 77.6H90.1277C90.3677 77.248 90.6557 76.928 90.9917 76.64C91.3277 76.336 91.7277 76.096 92.1917 75.92C92.6717 75.744 93.2237 75.656 93.8477 75.656ZM92.6957 78.512C92.0717 78.512 91.5757 78.64 91.2077 78.896C90.8397 79.152 90.5677 79.544 90.3917 80.072C90.2317 80.584 90.1437 81.232 90.1277 82.016V82.4C90.1277 83.248 90.2077 83.968 90.3677 84.56C90.5277 85.136 90.7997 85.576 91.1837 85.88C91.5677 86.184 92.0877 86.336 92.7437 86.336C93.2877 86.336 93.7357 86.184 94.0877 85.88C94.4397 85.576 94.7037 85.128 94.8797 84.536C95.0557 83.944 95.1437 83.224 95.1437 82.376C95.1437 81.096 94.9437 80.136 94.5437 79.496C94.1597 78.84 93.5437 78.512 92.6957 78.512ZM107.115 75.632C108.875 75.632 110.219 76.016 111.147 76.784C112.091 77.536 112.563 78.696 112.563 80.264V89H110.067L109.371 87.224H109.275C108.907 87.688 108.523 88.072 108.123 88.376C107.739 88.68 107.291 88.896 106.779 89.024C106.283 89.168 105.667 89.24 104.931 89.24C104.163 89.24 103.467 89.096 102.843 88.808C102.235 88.504 101.755 88.048 101.403 87.44C101.051 86.816 100.875 86.032 100.875 85.088C100.875 83.696 101.363 82.672 102.339 82.016C103.315 81.344 104.779 80.976 106.731 80.912L109.011 80.84V80.264C109.011 79.576 108.827 79.072 108.459 78.752C108.107 78.432 107.611 78.272 106.971 78.272C106.331 78.272 105.707 78.368 105.099 78.56C104.491 78.736 103.883 78.96 103.275 79.232L102.099 76.808C102.803 76.44 103.579 76.152 104.427 75.944C105.291 75.736 106.187 75.632 107.115 75.632ZM107.619 82.976C106.467 83.008 105.667 83.216 105.219 83.6C104.771 83.984 104.547 84.488 104.547 85.112C104.547 85.656 104.707 86.048 105.027 86.288C105.347 86.512 105.763 86.624 106.275 86.624C107.043 86.624 107.691 86.4 108.219 85.952C108.747 85.488 109.011 84.84 109.011 84.008V82.928L107.619 82.976ZM121.552 89.24C120.256 89.24 119.152 89.008 118.24 88.544C117.328 88.064 116.632 87.328 116.152 86.336C115.672 85.344 115.432 84.072 115.432 82.52C115.432 80.92 115.704 79.616 116.248 78.608C116.792 77.6 117.544 76.856 118.504 76.376C119.48 75.896 120.6 75.656 121.864 75.656C122.76 75.656 123.536 75.744 124.192 75.92C124.864 76.096 125.448 76.304 125.944 76.544L124.888 79.304C124.328 79.08 123.8 78.896 123.304 78.752C122.824 78.608 122.344 78.536 121.864 78.536C121.24 78.536 120.72 78.688 120.304 78.992C119.888 79.28 119.576 79.72 119.368 80.312C119.176 80.888 119.08 81.616 119.08 82.496C119.08 83.36 119.184 84.08 119.392 84.656C119.616 85.216 119.936 85.64 120.352 85.928C120.768 86.2 121.272 86.336 121.864 86.336C122.616 86.336 123.28 86.24 123.856 86.048C124.432 85.84 124.992 85.56 125.536 85.208V88.256C124.992 88.608 124.416 88.856 123.808 89C123.216 89.16 122.464 89.24 121.552 89.24ZM132.008 81.08C132.008 81.352 131.992 81.688 131.96 82.088C131.944 82.488 131.92 82.896 131.888 83.312C131.872 83.728 131.848 84.096 131.816 84.416C131.784 84.736 131.76 84.96 131.744 85.088L137.792 75.896H142.088V89H138.632V83.768C138.632 83.336 138.648 82.864 138.68 82.352C138.712 81.824 138.744 81.336 138.776 80.888C138.824 80.424 138.856 80.072 138.872 79.832L132.848 89H128.552V75.896H132.008V81.08ZM150.601 75.656C151.545 75.656 152.425 75.784 153.241 76.04C154.073 76.28 154.737 76.656 155.233 77.168C155.745 77.68 156.001 78.336 156.001 79.136C156.001 79.92 155.761 80.544 155.281 81.008C154.817 81.472 154.185 81.808 153.385 82.016V82.136C153.945 82.264 154.449 82.448 154.897 82.688C155.345 82.912 155.697 83.224 155.953 83.624C156.225 84.008 156.361 84.528 156.361 85.184C156.361 85.904 156.129 86.576 155.665 87.2C155.217 87.808 154.513 88.304 153.553 88.688C152.609 89.056 151.393 89.24 149.905 89.24C149.201 89.24 148.537 89.208 147.913 89.144C147.289 89.08 146.721 88.992 146.209 88.88C145.697 88.752 145.249 88.6 144.865 88.424V85.472C145.409 85.728 146.073 85.96 146.857 86.168C147.657 86.376 148.505 86.48 149.401 86.48C150.057 86.48 150.641 86.432 151.153 86.336C151.681 86.24 152.097 86.08 152.401 85.856C152.721 85.632 152.881 85.336 152.881 84.968C152.881 84.616 152.745 84.328 152.473 84.104C152.201 83.864 151.793 83.688 151.249 83.576C150.705 83.464 150.009 83.408 149.161 83.408H147.769V80.936H149.089C150.273 80.936 151.185 80.84 151.825 80.648C152.481 80.456 152.809 80.096 152.809 79.568C152.809 79.152 152.601 78.84 152.185 78.632C151.769 78.408 151.089 78.296 150.145 78.296C149.521 78.296 148.841 78.368 148.105 78.512C147.369 78.656 146.673 78.864 146.017 79.136L144.961 76.64C145.713 76.352 146.537 76.12 147.433 75.944C148.329 75.752 149.385 75.656 150.601 75.656ZM175.65 75.896V89H172.314V82.568C172.314 81.928 172.322 81.304 172.338 80.696C172.37 80.088 172.41 79.528 172.458 79.016H172.386L168.762 89H166.074L162.402 78.992H162.306C162.37 79.52 162.41 80.088 162.426 80.696C162.458 81.288 162.474 81.944 162.474 82.664V89H159.138V75.896H164.202L167.466 84.776L170.778 75.896H175.65ZM182.844 81.08C182.844 81.352 182.828 81.688 182.796 82.088C182.78 82.488 182.756 82.896 182.724 83.312C182.708 83.728 182.684 84.096 182.652 84.416C182.62 84.736 182.596 84.96 182.58 85.088L188.628 75.896H192.924V89H189.468V83.768C189.468 83.336 189.484 82.864 189.516 82.352C189.548 81.824 189.58 81.336 189.612 80.888C189.66 80.424 189.692 80.072 189.708 79.832L183.684 89H179.388V75.896H182.844V81.08ZM198.197 84.008C198.117 83.848 198.029 83.624 197.933 83.336C197.837 83.032 197.789 82.712 197.789 82.376C197.789 81.992 197.869 81.64 198.029 81.32C198.189 81 198.429 80.68 198.749 80.36C199.069 80.024 199.469 79.664 199.949 79.28C200.445 78.88 200.821 78.552 201.077 78.296C201.333 78.024 201.501 77.768 201.581 77.528C201.677 77.272 201.725 76.96 201.725 76.592C201.725 75.968 201.525 75.52 201.125 75.248C200.741 74.976 200.109 74.84 199.229 74.84C198.877 74.84 198.477 74.864 198.029 74.912C197.597 74.96 197.165 75.024 196.733 75.104C196.317 75.184 195.949 75.256 195.629 75.32L195.485 72.944C195.853 72.832 196.293 72.712 196.805 72.584C197.317 72.456 197.853 72.352 198.413 72.272C198.973 72.192 199.485 72.152 199.949 72.152C201.661 72.152 202.925 72.48 203.741 73.136C204.573 73.776 204.989 74.872 204.989 76.424C204.989 77.176 204.925 77.784 204.797 78.248C204.685 78.712 204.469 79.128 204.149 79.496C203.829 79.864 203.381 80.28 202.805 80.744C202.085 81.32 201.565 81.792 201.245 82.16C200.941 82.528 200.781 82.912 200.765 83.312V84.008H198.197ZM197.813 88.976V85.64H201.149V88.976H197.813Z" fill="white"/>
<path d="M29.128 131.346C28.744 132.198 28.354 132.912 27.958 133.488C27.574 134.052 27.118 134.478 26.59 134.766C26.062 135.042 25.39 135.18 24.574 135.18C24.238 135.18 23.92 135.156 23.62 135.108C23.332 135.06 23.068 134.994 22.828 134.91V133.308C23.068 133.416 23.326 133.506 23.602 133.578C23.878 133.638 24.166 133.668 24.466 133.668C24.91 133.668 25.288 133.608 25.6 133.488C25.924 133.356 26.206 133.146 26.446 132.858C26.698 132.57 26.932 132.186 27.148 131.706L22.198 122.148H23.98L27.562 129.222C27.61 129.306 27.658 129.408 27.706 129.528C27.754 129.636 27.802 129.75 27.85 129.87C27.91 129.99 27.958 130.104 27.994 130.212H28.066C28.102 130.128 28.138 130.032 28.174 129.924C28.222 129.804 28.264 129.69 28.3 129.582C28.348 129.462 28.39 129.36 28.426 129.276L31.522 122.148H33.232L29.128 131.346ZM36.3464 125.352V129.366H41.5844V125.352H43.1684V135H41.5844V130.698H36.3464V135H34.7624V125.352H36.3464ZM53.3874 125.352V133.668H54.7914V138.348H53.2614V135H46.5474V138.348H45.0354V133.668H45.8094C46.3614 132.9 46.8174 132.066 47.1774 131.166C47.5494 130.254 47.8254 129.306 48.0054 128.322C48.1974 127.326 48.2994 126.336 48.3114 125.352H53.3874ZM49.7154 126.594C49.6674 127.41 49.5414 128.256 49.3374 129.132C49.1334 129.996 48.8694 130.824 48.5454 131.616C48.2334 132.408 47.8674 133.092 47.4474 133.668H51.8574V126.594H49.7154ZM60.3363 125.19C61.5123 125.19 62.3823 125.448 62.9463 125.964C63.5103 126.48 63.7923 127.302 63.7923 128.43V135H62.6403L62.3343 133.632H62.2623C61.9863 133.98 61.6983 134.274 61.3983 134.514C61.1103 134.742 60.7743 134.91 60.3903 135.018C60.0183 135.126 59.5623 135.18 59.0223 135.18C58.4463 135.18 57.9243 135.078 57.4563 134.874C57.0003 134.67 56.6403 134.358 56.3763 133.938C56.1123 133.506 55.9803 132.966 55.9803 132.318C55.9803 131.358 56.3583 130.62 57.1143 130.104C57.8703 129.576 59.0343 129.288 60.6063 129.24L62.2443 129.186V128.61C62.2443 127.806 62.0703 127.248 61.7223 126.936C61.3743 126.624 60.8823 126.468 60.2463 126.468C59.7423 126.468 59.2623 126.546 58.8063 126.702C58.3503 126.846 57.9243 127.014 57.5283 127.206L57.0423 126.018C57.4623 125.79 57.9603 125.598 58.5363 125.442C59.1123 125.274 59.7123 125.19 60.3363 125.19ZM60.8043 130.338C59.6043 130.386 58.7703 130.578 58.3023 130.914C57.8463 131.25 57.6183 131.724 57.6183 132.336C57.6183 132.876 57.7803 133.272 58.1043 133.524C58.4403 133.776 58.8663 133.902 59.3823 133.902C60.1983 133.902 60.8763 133.68 61.4163 133.236C61.9563 132.78 62.2263 132.084 62.2263 131.148V130.284L60.8043 130.338ZM78.8813 125.352V135H77.2973V126.702H72.3113V135H70.7273V125.352H78.8813ZM80.4477 125.352H82.1397L84.2277 130.842C84.3477 131.166 84.4557 131.478 84.5517 131.778C84.6597 132.078 84.7557 132.372 84.8397 132.66C84.9237 132.936 84.9897 133.206 85.0377 133.47H85.1097C85.1817 133.17 85.2957 132.78 85.4517 132.3C85.6077 131.808 85.7697 131.316 85.9377 130.824L87.8997 125.352H89.6097L85.4517 136.332C85.2237 136.932 84.9537 137.454 84.6417 137.898C84.3417 138.354 83.9697 138.702 83.5257 138.942C83.0937 139.194 82.5657 139.32 81.9417 139.32C81.6537 139.32 81.4017 139.302 81.1857 139.266C80.9697 139.242 80.7837 139.212 80.6277 139.176V137.916C80.7597 137.94 80.9157 137.964 81.0957 137.988C81.2877 138.012 81.4857 138.024 81.6897 138.024C82.0617 138.024 82.3797 137.952 82.6437 137.808C82.9197 137.676 83.1537 137.478 83.3457 137.214C83.5377 136.962 83.6997 136.662 83.8317 136.314L84.3357 135.036L80.4477 125.352ZM98.1279 135H96.5259V126.666H93.6819C93.5619 128.19 93.4119 129.492 93.2319 130.572C93.0519 131.64 92.8239 132.51 92.5479 133.182C92.2719 133.854 91.9419 134.346 91.5579 134.658C91.1739 134.97 90.7239 135.126 90.2079 135.126C90.0519 135.126 89.8959 135.114 89.7399 135.09C89.5959 135.078 89.4759 135.048 89.3799 135V133.812C89.4519 133.836 89.5299 133.854 89.6139 133.866C89.6979 133.878 89.7819 133.884 89.8659 133.884C90.1299 133.884 90.3699 133.776 90.5859 133.56C90.8019 133.344 90.9939 133.014 91.1619 132.57C91.3419 132.126 91.5039 131.568 91.6479 130.896C91.7919 130.212 91.9179 129.408 92.0259 128.484C92.1339 127.56 92.2299 126.516 92.3139 125.352H98.1279V135ZM102.684 131.238C102.684 131.346 102.678 131.502 102.666 131.706C102.666 131.898 102.66 132.108 102.648 132.336C102.636 132.552 102.624 132.762 102.612 132.966C102.6 133.158 102.588 133.314 102.576 133.434L107.742 125.352H109.686V135H108.21V129.312C108.21 129.12 108.21 128.868 108.21 128.556C108.222 128.244 108.234 127.938 108.246 127.638C108.258 127.326 108.27 127.092 108.282 126.936L103.152 135H101.19V125.352H102.684V131.238ZM114.341 125.352V129.366H119.579V125.352H121.163V135H119.579V130.698H114.341V135H112.757V125.352H114.341ZM130.104 125.352V126.684H125.802V135H124.218V125.352H130.104ZM133.499 131.238C133.499 131.346 133.493 131.502 133.481 131.706C133.481 131.898 133.475 132.108 133.463 132.336C133.451 132.552 133.439 132.762 133.427 132.966C133.415 133.158 133.403 133.314 133.391 133.434L138.557 125.352H140.501V135H139.025V129.312C139.025 129.12 139.025 128.868 139.025 128.556C139.037 128.244 139.049 127.938 139.061 127.638C139.073 127.326 139.085 127.092 139.097 126.936L133.967 135H132.005V125.352H133.499V131.238ZM146.109 125.172C146.841 125.172 147.477 125.274 148.017 125.478C148.557 125.67 148.977 125.958 149.277 126.342C149.577 126.714 149.727 127.17 149.727 127.71C149.727 128.298 149.565 128.766 149.241 129.114C148.917 129.45 148.473 129.696 147.909 129.852V129.924C148.293 130.032 148.647 130.182 148.971 130.374C149.295 130.566 149.553 130.818 149.745 131.13C149.949 131.442 150.051 131.844 150.051 132.336C150.051 132.864 149.901 133.344 149.601 133.776C149.313 134.208 148.863 134.55 148.251 134.802C147.651 135.054 146.877 135.18 145.929 135.18C145.473 135.18 145.035 135.156 144.615 135.108C144.207 135.06 143.835 134.988 143.499 134.892C143.175 134.796 142.887 134.682 142.635 134.55V133.128C143.043 133.32 143.523 133.494 144.075 133.65C144.639 133.806 145.251 133.884 145.911 133.884C146.391 133.884 146.823 133.83 147.207 133.722C147.603 133.614 147.915 133.446 148.143 133.218C148.371 132.978 148.485 132.654 148.485 132.246C148.485 131.874 148.383 131.574 148.179 131.346C147.975 131.106 147.669 130.926 147.261 130.806C146.865 130.686 146.355 130.626 145.731 130.626H144.435V129.33H145.479C146.307 129.33 146.967 129.222 147.459 129.006C147.963 128.778 148.215 128.394 148.215 127.854C148.215 127.398 148.023 127.056 147.639 126.828C147.267 126.6 146.727 126.486 146.019 126.486C145.491 126.486 145.023 126.54 144.615 126.648C144.219 126.744 143.781 126.894 143.301 127.098L142.743 125.838C143.259 125.61 143.799 125.442 144.363 125.334C144.927 125.226 145.509 125.172 146.109 125.172ZM153.979 125.352V129.366H159.217V125.352H160.801V135H159.217V130.698H153.979V135H152.395V125.352H153.979ZM165.35 131.238C165.35 131.346 165.344 131.502 165.332 131.706C165.332 131.898 165.326 132.108 165.314 132.336C165.302 132.552 165.29 132.762 165.278 132.966C165.266 133.158 165.254 133.314 165.242 133.434L170.408 125.352H172.352V135H170.876V129.312C170.876 129.12 170.876 128.868 170.876 128.556C170.888 128.244 170.9 127.938 170.912 127.638C170.924 127.326 170.936 127.092 170.948 126.936L165.818 135H163.856V125.352H165.35V131.238ZM186.038 126.684H182.888V135H181.322V126.684H178.208V125.352H186.038V126.684ZM191.488 125.172C192.316 125.172 193.024 125.352 193.612 125.712C194.212 126.072 194.668 126.582 194.98 127.242C195.304 127.89 195.466 128.652 195.466 129.528V130.482H188.86C188.884 131.574 189.16 132.408 189.688 132.984C190.228 133.548 190.978 133.83 191.938 133.83C192.55 133.83 193.09 133.776 193.558 133.668C194.038 133.548 194.53 133.38 195.034 133.164V134.55C194.542 134.766 194.056 134.922 193.576 135.018C193.096 135.126 192.526 135.18 191.866 135.18C190.954 135.18 190.144 134.994 189.436 134.622C188.74 134.25 188.194 133.698 187.798 132.966C187.414 132.222 187.222 131.316 187.222 130.248C187.222 129.192 187.396 128.286 187.744 127.53C188.104 126.774 188.602 126.192 189.238 125.784C189.886 125.376 190.636 125.172 191.488 125.172ZM191.47 126.468C190.714 126.468 190.114 126.714 189.67 127.206C189.238 127.686 188.98 128.358 188.896 129.222H193.81C193.81 128.67 193.726 128.19 193.558 127.782C193.39 127.374 193.132 127.056 192.784 126.828C192.448 126.588 192.01 126.468 191.47 126.468ZM209.497 125.352L205.519 130.032L209.839 135H208.039L203.863 130.104V135H202.387V130.104L198.211 135H196.411L200.731 130.032L196.753 125.352H198.481L202.387 130.032V125.352H203.863V130.032L207.787 125.352H209.497ZM215.077 125.19C216.253 125.19 217.123 125.448 217.687 125.964C218.251 126.48 218.533 127.302 218.533 128.43V135H217.381L217.075 133.632H217.003C216.727 133.98 216.439 134.274 216.139 134.514C215.851 134.742 215.515 134.91 215.131 135.018C214.759 135.126 214.303 135.18 213.763 135.18C213.187 135.18 212.665 135.078 212.197 134.874C211.741 134.67 211.381 134.358 211.117 133.938C210.853 133.506 210.721 132.966 210.721 132.318C210.721 131.358 211.099 130.62 211.855 130.104C212.611 129.576 213.775 129.288 215.347 129.24L216.985 129.186V128.61C216.985 127.806 216.811 127.248 216.463 126.936C216.115 126.624 215.623 126.468 214.987 126.468C214.483 126.468 214.003 126.546 213.547 126.702C213.091 126.846 212.665 127.014 212.269 127.206L211.783 126.018C212.203 125.79 212.701 125.598 213.277 125.442C213.853 125.274 214.453 125.19 215.077 125.19ZM215.545 130.338C214.345 130.386 213.511 130.578 213.043 130.914C212.587 131.25 212.359 131.724 212.359 132.336C212.359 132.876 212.521 133.272 212.845 133.524C213.181 133.776 213.607 133.902 214.123 133.902C214.939 133.902 215.617 133.68 216.157 133.236C216.697 132.78 216.967 132.084 216.967 131.148V130.284L215.545 130.338ZM234.598 125.352V135H221.512V125.352H223.096V133.668H227.254V125.352H228.838V133.668H233.014V125.352H234.598ZM22.018 149.352H23.71L25.798 154.842C25.918 155.166 26.026 155.478 26.122 155.778C26.23 156.078 26.326 156.372 26.41 156.66C26.494 156.936 26.56 157.206 26.608 157.47H26.68C26.752 157.17 26.866 156.78 27.022 156.3C27.178 155.808 27.34 155.316 27.508 154.824L29.47 149.352H31.18L27.022 160.332C26.794 160.932 26.524 161.454 26.212 161.898C25.912 162.354 25.54 162.702 25.096 162.942C24.664 163.194 24.136 163.32 23.512 163.32C23.224 163.32 22.972 163.302 22.756 163.266C22.54 163.242 22.354 163.212 22.198 163.176V161.916C22.33 161.94 22.486 161.964 22.666 161.988C22.858 162.012 23.056 162.024 23.26 162.024C23.632 162.024 23.95 161.952 24.214 161.808C24.49 161.676 24.724 161.478 24.916 161.214C25.108 160.962 25.27 160.662 25.402 160.314L25.906 159.036L22.018 149.352ZM34.0918 152.862C34.0918 153.426 34.2478 153.846 34.5598 154.122C34.8838 154.386 35.3458 154.518 35.9458 154.518C36.5458 154.518 37.0918 154.428 37.5838 154.248C38.0758 154.056 38.5798 153.804 39.0958 153.492V149.352H40.6798V159H39.0958V154.698C38.5558 155.046 38.0218 155.322 37.4938 155.526C36.9778 155.718 36.3538 155.814 35.6218 155.814C34.6378 155.814 33.8698 155.556 33.3178 155.04C32.7778 154.524 32.5078 153.834 32.5078 152.97V149.352H34.0918V152.862ZM42.2328 149.352H43.9248L46.0128 154.842C46.1328 155.166 46.2408 155.478 46.3368 155.778C46.4448 156.078 46.5408 156.372 46.6248 156.66C46.7088 156.936 46.7748 157.206 46.8228 157.47H46.8948C46.9668 157.17 47.0808 156.78 47.2368 156.3C47.3928 155.808 47.5548 155.316 47.7228 154.824L49.6848 149.352H51.3948L47.2368 160.332C47.0088 160.932 46.7388 161.454 46.4268 161.898C46.1268 162.354 45.7548 162.702 45.3108 162.942C44.8788 163.194 44.3508 163.32 43.7268 163.32C43.4388 163.32 43.1868 163.302 42.9708 163.266C42.7548 163.242 42.5688 163.212 42.4128 163.176V161.916C42.5448 161.94 42.7008 161.964 42.8808 161.988C43.0728 162.012 43.2708 162.024 43.4748 162.024C43.8468 162.024 44.1648 161.952 44.4288 161.808C44.7048 161.676 44.9388 161.478 45.1308 161.214C45.3228 160.962 45.4848 160.662 45.6168 160.314L46.1208 159.036L42.2328 149.352ZM54.5046 149.352V153.366H59.7426V149.352H61.3266V159H59.7426V154.698H54.5046V159H52.9206V149.352H54.5046ZM74.7986 145.356C74.7506 145.956 74.6006 146.46 74.3486 146.868C74.1086 147.276 73.7486 147.582 73.2686 147.786C72.7886 147.99 72.1646 148.092 71.3966 148.092C70.6166 148.092 69.9866 147.99 69.5066 147.786C69.0386 147.582 68.6966 147.282 68.4806 146.886C68.2646 146.478 68.1326 145.968 68.0846 145.356H69.5606C69.6206 146.004 69.7886 146.442 70.0646 146.67C70.3526 146.886 70.8086 146.994 71.4326 146.994C71.9846 146.994 72.4166 146.88 72.7286 146.652C73.0526 146.412 73.2446 145.98 73.3046 145.356H74.7986ZM66.8246 149.352H68.5166L70.6046 154.842C70.7246 155.166 70.8326 155.478 70.9286 155.778C71.0366 156.078 71.1326 156.372 71.2166 156.66C71.3006 156.936 71.3666 157.206 71.4146 157.47H71.4866C71.5586 157.17 71.6726 156.78 71.8286 156.3C71.9846 155.808 72.1466 155.316 72.3146 154.824L74.2766 149.352H75.9866L71.8286 160.332C71.6006 160.932 71.3306 161.454 71.0186 161.898C70.7186 162.354 70.3466 162.702 69.9026 162.942C69.4706 163.194 68.9426 163.32 68.3186 163.32C68.0306 163.32 67.7786 163.302 67.5626 163.266C67.3466 163.242 67.1606 163.212 67.0046 163.176V161.916C67.1366 161.94 67.2926 161.964 67.4726 161.988C67.6646 162.012 67.8626 162.024 68.0666 162.024C68.4386 162.024 68.7566 161.952 69.0206 161.808C69.2966 161.676 69.5306 161.478 69.7226 161.214C69.9146 160.962 70.0766 160.662 70.2086 160.314L70.7126 159.036L66.8246 149.352ZM80.0504 149.172C80.7824 149.172 81.4184 149.274 81.9584 149.478C82.4984 149.67 82.9184 149.958 83.2184 150.342C83.5184 150.714 83.6684 151.17 83.6684 151.71C83.6684 152.298 83.5064 152.766 83.1824 153.114C82.8584 153.45 82.4144 153.696 81.8504 153.852V153.924C82.2344 154.032 82.5884 154.182 82.9124 154.374C83.2364 154.566 83.4944 154.818 83.6864 155.13C83.8904 155.442 83.9924 155.844 83.9924 156.336C83.9924 156.864 83.8424 157.344 83.5424 157.776C83.2544 158.208 82.8044 158.55 82.1924 158.802C81.5924 159.054 80.8184 159.18 79.8704 159.18C79.4144 159.18 78.9764 159.156 78.5564 159.108C78.1484 159.06 77.7764 158.988 77.4404 158.892C77.1164 158.796 76.8284 158.682 76.5764 158.55V157.128C76.9844 157.32 77.4644 157.494 78.0164 157.65C78.5804 157.806 79.1924 157.884 79.8524 157.884C80.3324 157.884 80.7644 157.83 81.1484 157.722C81.5444 157.614 81.8564 157.446 82.0844 157.218C82.3124 156.978 82.4264 156.654 82.4264 156.246C82.4264 155.874 82.3244 155.574 82.1204 155.346C81.9164 155.106 81.6104 154.926 81.2024 154.806C80.8064 154.686 80.2964 154.626 79.6724 154.626H78.3764V153.33H79.4204C80.2484 153.33 80.9084 153.222 81.4004 153.006C81.9044 152.778 82.1564 152.394 82.1564 151.854C82.1564 151.398 81.9644 151.056 81.5804 150.828C81.2084 150.6 80.6684 150.486 79.9604 150.486C79.4324 150.486 78.9644 150.54 78.5564 150.648C78.1604 150.744 77.7224 150.894 77.2424 151.098L76.6844 149.838C77.2004 149.61 77.7404 149.442 78.3044 149.334C78.8684 149.226 79.4504 149.172 80.0504 149.172ZM87.8306 155.238C87.8306 155.346 87.8246 155.502 87.8126 155.706C87.8126 155.898 87.8066 156.108 87.7946 156.336C87.7826 156.552 87.7706 156.762 87.7586 156.966C87.7466 157.158 87.7346 157.314 87.7226 157.434L92.8886 149.352H94.8326V159H93.3566V153.312C93.3566 153.12 93.3566 152.868 93.3566 152.556C93.3686 152.244 93.3806 151.938 93.3926 151.638C93.4046 151.326 93.4166 151.092 93.4286 150.936L88.2986 159H86.3366V149.352H87.8306V155.238ZM99.487 149.352V153.366H104.725V149.352H106.309V159H104.725V154.698H99.487V159H97.903V149.352H99.487ZM115.25 149.352V150.684H110.948V159H109.364V149.352H115.25ZM118.645 155.238C118.645 155.346 118.639 155.502 118.627 155.706C118.627 155.898 118.621 156.108 118.609 156.336C118.597 156.552 118.585 156.762 118.573 156.966C118.561 157.158 118.549 157.314 118.537 157.434L123.703 149.352H125.647V159H124.171V153.312C124.171 153.12 124.171 152.868 124.171 152.556C124.183 152.244 124.195 151.938 124.207 151.638C124.219 151.326 124.231 151.092 124.243 150.936L119.113 159H117.151V149.352H118.645V155.238ZM131.256 149.172C131.988 149.172 132.624 149.274 133.164 149.478C133.704 149.67 134.124 149.958 134.424 150.342C134.724 150.714 134.874 151.17 134.874 151.71C134.874 152.298 134.712 152.766 134.388 153.114C134.064 153.45 133.62 153.696 133.056 153.852V153.924C133.44 154.032 133.794 154.182 134.118 154.374C134.442 154.566 134.7 154.818 134.892 155.13C135.096 155.442 135.198 155.844 135.198 156.336C135.198 156.864 135.048 157.344 134.748 157.776C134.46 158.208 134.01 158.55 133.398 158.802C132.798 159.054 132.024 159.18 131.076 159.18C130.62 159.18 130.182 159.156 129.762 159.108C129.354 159.06 128.982 158.988 128.646 158.892C128.322 158.796 128.034 158.682 127.781 158.55V157.128C128.19 157.32 128.67 157.494 129.222 157.65C129.786 157.806 130.398 157.884 131.058 157.884C131.538 157.884 131.97 157.83 132.354 157.722C132.75 157.614 133.062 157.446 133.29 157.218C133.518 156.978 133.632 156.654 133.632 156.246C133.632 155.874 133.53 155.574 133.326 155.346C133.122 155.106 132.816 154.926 132.408 154.806C132.012 154.686 131.502 154.626 130.878 154.626H129.582V153.33H130.626C131.454 153.33 132.114 153.222 132.606 153.006C133.11 152.778 133.362 152.394 133.362 151.854C133.362 151.398 133.17 151.056 132.786 150.828C132.414 150.6 131.874 150.486 131.166 150.486C130.638 150.486 130.17 150.54 129.762 150.648C129.366 150.744 128.928 150.894 128.448 151.098L127.89 149.838C128.406 149.61 128.946 149.442 129.51 149.334C130.074 149.226 130.656 149.172 131.256 149.172ZM149.309 145.356C149.261 145.956 149.111 146.46 148.859 146.868C148.619 147.276 148.259 147.582 147.779 147.786C147.299 147.99 146.675 148.092 145.907 148.092C145.127 148.092 144.497 147.99 144.017 147.786C143.549 147.582 143.207 147.282 142.991 146.886C142.775 146.478 142.643 145.968 142.595 145.356H144.071C144.131 146.004 144.299 146.442 144.575 146.67C144.863 146.886 145.319 146.994 145.943 146.994C146.495 146.994 146.927 146.88 147.239 146.652C147.563 146.412 147.755 145.98 147.815 145.356H149.309ZM142.991 155.238C142.991 155.346 142.985 155.502 142.973 155.706C142.973 155.898 142.967 156.108 142.955 156.336C142.943 156.552 142.931 156.762 142.919 156.966C142.907 157.158 142.895 157.314 142.883 157.434L148.049 149.352H149.993V159H148.517V153.312C148.517 153.12 148.517 152.868 148.517 152.556C148.529 152.244 148.541 151.938 148.553 151.638C148.565 151.326 148.577 151.092 148.589 150.936L143.459 159H141.497V149.352H142.991V155.238ZM161.451 154.158C161.451 154.962 161.343 155.676 161.127 156.3C160.923 156.912 160.623 157.434 160.227 157.866C159.843 158.298 159.369 158.628 158.805 158.856C158.253 159.072 157.635 159.18 156.951 159.18C156.315 159.18 155.727 159.072 155.187 158.856C154.647 158.628 154.179 158.298 153.783 157.866C153.387 157.434 153.075 156.912 152.847 156.3C152.631 155.676 152.523 154.962 152.523 154.158C152.523 153.09 152.703 152.19 153.063 151.458C153.423 150.714 153.939 150.15 154.611 149.766C155.283 149.37 156.081 149.172 157.005 149.172C157.881 149.172 158.649 149.37 159.309 149.766C159.981 150.15 160.503 150.714 160.875 151.458C161.259 152.19 161.451 153.09 161.451 154.158ZM154.161 154.158C154.161 154.914 154.257 155.574 154.449 156.138C154.653 156.69 154.965 157.116 155.385 157.416C155.805 157.716 156.339 157.866 156.987 157.866C157.635 157.866 158.169 157.716 158.589 157.416C159.009 157.116 159.315 156.69 159.507 156.138C159.711 155.574 159.813 154.914 159.813 154.158C159.813 153.39 159.711 152.736 159.507 152.196C159.303 151.656 158.991 151.242 158.571 150.954C158.163 150.654 157.629 150.504 156.969 150.504C155.985 150.504 155.271 150.828 154.827 151.476C154.383 152.124 154.161 153.018 154.161 154.158ZM170.676 162.348V159H169.902L165.546 154.104V159H163.962V149.352H165.546V154.032L169.668 149.352H171.396L167.274 153.996L170.568 157.668H172.188V162.348H170.676ZM180.641 150.684H177.491V159H175.925V150.684H172.811V149.352H180.641V150.684ZM184.036 155.238C184.036 155.346 184.03 155.502 184.018 155.706C184.018 155.898 184.012 156.108 184 156.336C183.988 156.552 183.976 156.762 183.964 156.966C183.952 157.158 183.94 157.314 183.928 157.434L189.094 149.352H191.038V159H189.562V153.312C189.562 153.12 189.562 152.868 189.562 152.556C189.574 152.244 189.586 151.938 189.598 151.638C189.61 151.326 189.622 151.092 189.634 150.936L184.504 159H182.542V149.352H184.036V155.238ZM198.698 149.172C199.886 149.172 200.84 149.586 201.56 150.414C202.292 151.242 202.658 152.49 202.658 154.158C202.658 155.25 202.49 156.174 202.154 156.93C201.83 157.674 201.368 158.238 200.768 158.622C200.18 158.994 199.484 159.18 198.68 159.18C198.188 159.18 197.75 159.114 197.366 158.982C196.982 158.85 196.652 158.682 196.376 158.478C196.112 158.262 195.884 158.028 195.692 157.776H195.584C195.608 157.98 195.632 158.238 195.656 158.55C195.68 158.862 195.692 159.132 195.692 159.36V163.32H194.108V149.352H195.404L195.62 150.666H195.692C195.884 150.39 196.112 150.138 196.376 149.91C196.652 149.682 196.976 149.502 197.348 149.37C197.732 149.238 198.182 149.172 198.698 149.172ZM198.41 150.504C197.762 150.504 197.24 150.63 196.844 150.882C196.448 151.122 196.16 151.488 195.98 151.98C195.8 152.472 195.704 153.096 195.692 153.852V154.158C195.692 154.95 195.776 155.622 195.944 156.174C196.112 156.726 196.394 157.146 196.79 157.434C197.198 157.722 197.75 157.866 198.446 157.866C199.034 157.866 199.514 157.704 199.886 157.38C200.27 157.056 200.552 156.618 200.732 156.066C200.924 155.502 201.02 154.86 201.02 154.14C201.02 153.036 200.804 152.154 200.372 151.494C199.952 150.834 199.298 150.504 198.41 150.504ZM211.068 149.352V150.684H206.766V159H205.182V149.352H211.068ZM216.623 149.19C217.799 149.19 218.669 149.448 219.233 149.964C219.797 150.48 220.079 151.302 220.079 152.43V159H218.927L218.621 157.632H218.549C218.273 157.98 217.985 158.274 217.685 158.514C217.397 158.742 217.061 158.91 216.677 159.018C216.305 159.126 215.849 159.18 215.309 159.18C214.733 159.18 214.211 159.078 213.743 158.874C213.287 158.67 212.927 158.358 212.663 157.938C212.399 157.506 212.267 156.966 212.267 156.318C212.267 155.358 212.645 154.62 213.401 154.104C214.157 153.576 215.321 153.288 216.893 153.24L218.531 153.186V152.61C218.531 151.806 218.357 151.248 218.009 150.936C217.661 150.624 217.169 150.468 216.533 150.468C216.029 150.468 215.549 150.546 215.093 150.702C214.637 150.846 214.211 151.014 213.815 151.206L213.329 150.018C213.749 149.79 214.247 149.598 214.823 149.442C215.399 149.274 215.999 149.19 216.623 149.19ZM217.091 154.338C215.891 154.386 215.057 154.578 214.589 154.914C214.133 155.25 213.905 155.724 213.905 156.336C213.905 156.876 214.067 157.272 214.391 157.524C214.727 157.776 215.153 157.902 215.669 157.902C216.485 157.902 217.163 157.68 217.703 157.236C218.243 156.78 218.513 156.084 218.513 155.148V154.284L217.091 154.338ZM224.643 149.352V153.366H229.881V149.352H231.465V159H229.881V154.698H224.643V159H223.059V149.352H224.643ZM28.12 173.172C29.308 173.172 30.262 173.586 30.982 174.414C31.714 175.242 32.08 176.49 32.08 178.158C32.08 179.25 31.912 180.174 31.576 180.93C31.252 181.674 30.79 182.238 30.19 182.622C29.602 182.994 28.906 183.18 28.102 183.18C27.61 183.18 27.172 183.114 26.788 182.982C26.404 182.85 26.074 182.682 25.798 182.478C25.534 182.262 25.306 182.028 25.114 181.776H25.006C25.03 181.98 25.054 182.238 25.078 182.55C25.102 182.862 25.114 183.132 25.114 183.36V187.32H23.53V173.352H24.826L25.042 174.666H25.114C25.306 174.39 25.534 174.138 25.798 173.91C26.074 173.682 26.398 173.502 26.77 173.37C27.154 173.238 27.604 173.172 28.12 173.172ZM27.832 174.504C27.184 174.504 26.662 174.63 26.266 174.882C25.87 175.122 25.582 175.488 25.402 175.98C25.222 176.472 25.126 177.096 25.114 177.852V178.158C25.114 178.95 25.198 179.622 25.366 180.174C25.534 180.726 25.816 181.146 26.212 181.434C26.62 181.722 27.172 181.866 27.868 181.866C28.456 181.866 28.936 181.704 29.308 181.38C29.692 181.056 29.974 180.618 30.154 180.066C30.346 179.502 30.442 178.86 30.442 178.14C30.442 177.036 30.226 176.154 29.794 175.494C29.374 174.834 28.72 174.504 27.832 174.504ZM32.9164 173.352H34.6084L36.6964 178.842C36.8164 179.166 36.9244 179.478 37.0204 179.778C37.1284 180.078 37.2244 180.372 37.3084 180.66C37.3924 180.936 37.4584 181.206 37.5064 181.47H37.5784C37.6504 181.17 37.7644 180.78 37.9204 180.3C38.0764 179.808 38.2384 179.316 38.4064 178.824L40.3684 173.352H42.0784L37.9204 184.332C37.6924 184.932 37.4224 185.454 37.1104 185.898C36.8104 186.354 36.4384 186.702 35.9944 186.942C35.5624 187.194 35.0344 187.32 34.4104 187.32C34.1224 187.32 33.8704 187.302 33.6544 187.266C33.4384 187.242 33.2524 187.212 33.0964 187.176V185.916C33.2284 185.94 33.3844 185.964 33.5644 185.988C33.7564 186.012 33.9544 186.024 34.1584 186.024C34.5304 186.024 34.8484 185.952 35.1124 185.808C35.3884 185.676 35.6224 185.478 35.8144 185.214C36.0064 184.962 36.1684 184.662 36.3004 184.314L36.8044 183.036L32.9164 173.352ZM49.3102 173.352H51.0382L46.9162 177.996L51.3802 183H49.5442L45.1882 178.104V183H43.6042V173.352H45.1882V178.032L49.3102 173.352ZM54.7156 173.352V177.366H59.9536V173.352H61.5376V183H59.9536V178.698H54.7156V183H53.1316V173.352H54.7156ZM70.4785 173.352V174.684H66.1765V183H64.5925V173.352H70.4785ZM76.0336 173.19C77.2096 173.19 78.0796 173.448 78.6436 173.964C79.2076 174.48 79.4896 175.302 79.4896 176.43V183H78.3376L78.0316 181.632H77.9596C77.6836 181.98 77.3956 182.274 77.0956 182.514C76.8076 182.742 76.4716 182.91 76.0876 183.018C75.7156 183.126 75.2596 183.18 74.7196 183.18C74.1436 183.18 73.6216 183.078 73.1536 182.874C72.6976 182.67 72.3376 182.358 72.0736 181.938C71.8096 181.506 71.6776 180.966 71.6776 180.318C71.6776 179.358 72.0556 178.62 72.8116 178.104C73.5676 177.576 74.7316 177.288 76.3036 177.24L77.9416 177.186V176.61C77.9416 175.806 77.7676 175.248 77.4196 174.936C77.0716 174.624 76.5796 174.468 75.9436 174.468C75.4396 174.468 74.9596 174.546 74.5036 174.702C74.0476 174.846 73.6216 175.014 73.2256 175.206L72.7396 174.018C73.1596 173.79 73.6576 173.598 74.2336 173.442C74.8096 173.274 75.4096 173.19 76.0336 173.19ZM76.5016 178.338C75.3016 178.386 74.4676 178.578 73.9996 178.914C73.5436 179.25 73.3156 179.724 73.3156 180.336C73.3156 180.876 73.4776 181.272 73.8016 181.524C74.1376 181.776 74.5636 181.902 75.0796 181.902C75.8956 181.902 76.5736 181.68 77.1136 181.236C77.6536 180.78 77.9236 180.084 77.9236 179.148V178.284L76.5016 178.338ZM94.8125 178.158C94.8125 178.962 94.7045 179.676 94.4885 180.3C94.2845 180.912 93.9845 181.434 93.5885 181.866C93.2045 182.298 92.7305 182.628 92.1665 182.856C91.6145 183.072 90.9965 183.18 90.3125 183.18C89.6765 183.18 89.0885 183.072 88.5485 182.856C88.0085 182.628 87.5405 182.298 87.1445 181.866C86.7485 181.434 86.4365 180.912 86.2085 180.3C85.9925 179.676 85.8845 178.962 85.8845 178.158C85.8845 177.09 86.0645 176.19 86.4245 175.458C86.7845 174.714 87.3005 174.15 87.9725 173.766C88.6445 173.37 89.4425 173.172 90.3665 173.172C91.2425 173.172 92.0105 173.37 92.6705 173.766C93.3425 174.15 93.8645 174.714 94.2365 175.458C94.6205 176.19 94.8125 177.09 94.8125 178.158ZM87.5225 178.158C87.5225 178.914 87.6185 179.574 87.8105 180.138C88.0145 180.69 88.3265 181.116 88.7465 181.416C89.1665 181.716 89.7005 181.866 90.3485 181.866C90.9965 181.866 91.5305 181.716 91.9505 181.416C92.3705 181.116 92.6765 180.69 92.8685 180.138C93.0725 179.574 93.1745 178.914 93.1745 178.158C93.1745 177.39 93.0725 176.736 92.8685 176.196C92.6645 175.656 92.3525 175.242 91.9325 174.954C91.5245 174.654 90.9905 174.504 90.3305 174.504C89.3465 174.504 88.6325 174.828 88.1885 175.476C87.7445 176.124 87.5225 177.018 87.5225 178.158ZM96.819 177.204C96.819 175.8 96.957 174.606 97.233 173.622C97.521 172.626 97.959 171.834 98.547 171.246C99.147 170.646 99.915 170.244 100.851 170.04C101.631 169.872 102.393 169.722 103.137 169.59C103.881 169.458 104.577 169.338 105.225 169.23L105.495 170.616C105.183 170.664 104.835 170.724 104.451 170.796C104.067 170.856 103.677 170.922 103.281 170.994C102.885 171.054 102.501 171.12 102.129 171.192C101.769 171.252 101.451 171.312 101.175 171.372C100.779 171.456 100.425 171.6 100.113 171.804C99.801 171.996 99.531 172.26 99.303 172.596C99.087 172.932 98.913 173.346 98.781 173.838C98.649 174.33 98.571 174.912 98.547 175.584H98.655C98.823 175.356 99.051 175.122 99.339 174.882C99.639 174.642 99.993 174.438 100.401 174.27C100.821 174.102 101.295 174.018 101.823 174.018C102.663 174.018 103.359 174.204 103.911 174.576C104.475 174.936 104.895 175.44 105.171 176.088C105.459 176.736 105.603 177.492 105.603 178.356C105.603 179.424 105.417 180.318 105.045 181.038C104.673 181.758 104.157 182.298 103.497 182.658C102.837 183.006 102.069 183.18 101.193 183.18C100.533 183.18 99.933 183.054 99.393 182.802C98.853 182.538 98.391 182.154 98.007 181.65C97.623 181.146 97.329 180.522 97.125 179.778C96.921 179.034 96.819 178.176 96.819 177.204ZM101.319 181.866C101.847 181.866 102.303 181.758 102.687 181.542C103.083 181.326 103.389 180.972 103.605 180.48C103.821 179.988 103.929 179.334 103.929 178.518C103.929 177.534 103.743 176.76 103.371 176.196C103.011 175.62 102.411 175.332 101.571 175.332C101.043 175.332 100.563 175.452 100.131 175.692C99.699 175.92 99.339 176.184 99.051 176.484C98.763 176.784 98.559 177.036 98.439 177.24C98.439 177.828 98.481 178.398 98.565 178.95C98.649 179.502 98.793 180 98.997 180.444C99.213 180.876 99.507 181.224 99.879 181.488C100.263 181.74 100.743 181.866 101.319 181.866ZM106.586 173.352H108.278L110.366 178.842C110.486 179.166 110.594 179.478 110.69 179.778C110.798 180.078 110.894 180.372 110.978 180.66C111.062 180.936 111.128 181.206 111.176 181.47H111.248C111.32 181.17 111.434 180.78 111.59 180.3C111.746 179.808 111.908 179.316 112.076 178.824L114.038 173.352H115.748L111.59 184.332C111.362 184.932 111.092 185.454 110.78 185.898C110.48 186.354 110.108 186.702 109.664 186.942C109.232 187.194 108.704 187.32 108.08 187.32C107.792 187.32 107.54 187.302 107.324 187.266C107.108 187.242 106.922 187.212 106.766 187.176V185.916C106.898 185.94 107.054 185.964 107.234 185.988C107.426 186.012 107.624 186.024 107.828 186.024C108.2 186.024 108.518 185.952 108.782 185.808C109.058 185.676 109.292 185.478 109.484 185.214C109.676 184.962 109.838 184.662 109.97 184.314L110.474 183.036L106.586 173.352ZM118.858 173.352V177.366H124.096V173.352H125.68V183H124.096V178.698H118.858V183H117.274V173.352H118.858ZM132.389 173.19C133.565 173.19 134.435 173.448 134.999 173.964C135.563 174.48 135.845 175.302 135.845 176.43V183H134.693L134.387 181.632H134.315C134.039 181.98 133.751 182.274 133.451 182.514C133.163 182.742 132.827 182.91 132.443 183.018C132.071 183.126 131.615 183.18 131.075 183.18C130.499 183.18 129.977 183.078 129.509 182.874C129.053 182.67 128.693 182.358 128.429 181.938C128.165 181.506 128.033 180.966 128.033 180.318C128.033 179.358 128.411 178.62 129.167 178.104C129.923 177.576 131.087 177.288 132.659 177.24L134.297 177.186V176.61C134.297 175.806 134.123 175.248 133.775 174.936C133.427 174.624 132.935 174.468 132.299 174.468C131.795 174.468 131.315 174.546 130.859 174.702C130.403 174.846 129.977 175.014 129.581 175.206L129.095 174.018C129.515 173.79 130.013 173.598 130.589 173.442C131.165 173.274 131.765 173.19 132.389 173.19ZM132.857 178.338C131.657 178.386 130.823 178.578 130.355 178.914C129.899 179.25 129.671 179.724 129.671 180.336C129.671 180.876 129.833 181.272 130.157 181.524C130.493 181.776 130.919 181.902 131.435 181.902C132.251 181.902 132.929 181.68 133.469 181.236C134.009 180.78 134.279 180.084 134.279 179.148V178.284L132.857 178.338ZM142.276 177.204C142.276 175.8 142.414 174.606 142.69 173.622C142.978 172.626 143.416 171.834 144.004 171.246C144.604 170.646 145.372 170.244 146.308 170.04C147.088 169.872 147.85 169.722 148.594 169.59C149.338 169.458 150.034 169.338 150.682 169.23L150.952 170.616C150.64 170.664 150.292 170.724 149.908 170.796C149.524 170.856 149.134 170.922 148.738 170.994C148.342 171.054 147.958 171.12 147.586 171.192C147.226 171.252 146.908 171.312 146.632 171.372C146.236 171.456 145.882 171.6 145.57 171.804C145.258 171.996 144.988 172.26 144.76 172.596C144.544 172.932 144.37 173.346 144.238 173.838C144.106 174.33 144.028 174.912 144.004 175.584H144.112C144.28 175.356 144.508 175.122 144.796 174.882C145.096 174.642 145.45 174.438 145.858 174.27C146.278 174.102 146.752 174.018 147.28 174.018C148.12 174.018 148.816 174.204 149.368 174.576C149.932 174.936 150.352 175.44 150.628 176.088C150.916 176.736 151.06 177.492 151.06 178.356C151.06 179.424 150.874 180.318 150.502 181.038C150.13 181.758 149.614 182.298 148.954 182.658C148.294 183.006 147.526 183.18 146.65 183.18C145.99 183.18 145.39 183.054 144.85 182.802C144.31 182.538 143.848 182.154 143.464 181.65C143.08 181.146 142.786 180.522 142.582 179.778C142.378 179.034 142.276 178.176 142.276 177.204ZM146.776 181.866C147.304 181.866 147.76 181.758 148.144 181.542C148.54 181.326 148.846 180.972 149.062 180.48C149.278 179.988 149.386 179.334 149.386 178.518C149.386 177.534 149.2 176.76 148.828 176.196C148.468 175.62 147.868 175.332 147.028 175.332C146.5 175.332 146.02 175.452 145.588 175.692C145.156 175.92 144.796 176.184 144.508 176.484C144.22 176.784 144.016 177.036 143.896 177.24C143.896 177.828 143.938 178.398 144.022 178.95C144.106 179.502 144.25 180 144.454 180.444C144.67 180.876 144.964 181.224 145.336 181.488C145.72 181.74 146.2 181.866 146.776 181.866ZM160.017 169.356C159.969 169.956 159.819 170.46 159.567 170.868C159.327 171.276 158.967 171.582 158.487 171.786C158.007 171.99 157.383 172.092 156.615 172.092C155.835 172.092 155.205 171.99 154.725 171.786C154.257 171.582 153.915 171.282 153.699 170.886C153.483 170.478 153.351 169.968 153.303 169.356H154.779C154.839 170.004 155.007 170.442 155.283 170.67C155.571 170.886 156.027 170.994 156.651 170.994C157.203 170.994 157.635 170.88 157.947 170.652C158.271 170.412 158.463 169.98 158.523 169.356H160.017ZM152.043 173.352H153.735L155.823 178.842C155.943 179.166 156.051 179.478 156.147 179.778C156.255 180.078 156.351 180.372 156.435 180.66C156.519 180.936 156.585 181.206 156.633 181.47H156.705C156.777 181.17 156.891 180.78 157.047 180.3C157.203 179.808 157.365 179.316 157.533 178.824L159.495 173.352H161.205L157.047 184.332C156.819 184.932 156.549 185.454 156.237 185.898C155.937 186.354 155.565 186.702 155.121 186.942C154.689 187.194 154.161 187.32 153.537 187.32C153.249 187.32 152.997 187.302 152.781 187.266C152.565 187.242 152.379 187.212 152.223 187.176V185.916C152.355 185.94 152.511 185.964 152.691 185.988C152.883 186.012 153.081 186.024 153.285 186.024C153.657 186.024 153.975 185.952 154.239 185.808C154.515 185.676 154.749 185.478 154.941 185.214C155.133 184.962 155.295 184.662 155.427 184.314L155.931 183.036L152.043 173.352ZM169.724 183H168.122V174.666H165.278C165.158 176.19 165.008 177.492 164.828 178.572C164.648 179.64 164.42 180.51 164.144 181.182C163.868 181.854 163.538 182.346 163.154 182.658C162.77 182.97 162.32 183.126 161.804 183.126C161.648 183.126 161.492 183.114 161.336 183.09C161.192 183.078 161.072 183.048 160.976 183V181.812C161.048 181.836 161.126 181.854 161.21 181.866C161.294 181.878 161.378 181.884 161.462 181.884C161.726 181.884 161.966 181.776 162.182 181.56C162.398 181.344 162.59 181.014 162.758 180.57C162.938 180.126 163.1 179.568 163.244 178.896C163.388 178.212 163.514 177.408 163.622 176.484C163.73 175.56 163.826 174.516 163.91 173.352H169.724V183ZM174.28 179.238C174.28 179.346 174.274 179.502 174.262 179.706C174.262 179.898 174.256 180.108 174.244 180.336C174.232 180.552 174.22 180.762 174.208 180.966C174.196 181.158 174.184 181.314 174.172 181.434L179.338 173.352H181.282V183H179.806V177.312C179.806 177.12 179.806 176.868 179.806 176.556C179.818 176.244 179.83 175.938 179.842 175.638C179.854 175.326 179.866 175.092 179.878 174.936L174.748 183H172.786V173.352H174.28V179.238ZM185.936 173.352V177.366H191.174V173.352H192.758V183H191.174V178.698H185.936V183H184.352V173.352H185.936ZM201.699 173.352V174.684H197.397V183H195.813V173.352H201.699Z" fill="white"/>
<rect x="24" y="265" width="210" height="48" rx="14" fill="white"/>
<path d="M68.5205 281.273C67.9936 280.746 67.3681 280.328 66.6797 280.043C65.9913 279.758 65.2534 279.611 64.5083 279.611C63.7631 279.611 63.0253 279.758 62.3368 280.043C61.6484 280.328 61.0229 280.746 60.4961 281.273L60 281.77L59.5039 281.273C58.977 280.746 58.3515 280.328 57.6631 280.043C56.9747 279.758 56.2368 279.611 55.4917 279.611C54.7465 279.611 54.0087 279.758 53.3202 280.043C52.6318 280.328 52.0063 280.746 51.4795 281.273C49.7783 282.974 49.4815 285.594 50.6865 288.283C52.1552 291.561 59.0341 297.861 59.3261 298.127C59.5103 298.295 59.7506 298.389 59.9999 298.389C60.2493 298.389 60.4896 298.295 60.6738 298.127C60.9658 297.861 67.8447 291.561 69.3134 288.282C70.5185 285.594 70.2217 282.974 68.5205 281.273ZM67.4892 287.464C66.5195 289.627 62.2402 293.915 60 296.024C57.7597 293.915 53.4814 289.629 52.5107 287.465C52.1025 286.552 51.3213 284.26 52.8935 282.687C53.5826 281.998 54.5172 281.611 55.4917 281.611C56.4662 281.611 57.4007 281.998 58.0898 282.687L59.293 283.891C59.3858 283.984 59.496 284.057 59.6173 284.107C59.7387 284.158 59.8687 284.184 60 284.184C60.1313 284.184 60.2613 284.158 60.3827 284.107C60.504 284.057 60.6142 283.984 60.707 283.891L61.9101 282.687C62.6103 282.02 63.5407 281.647 64.5083 281.647C65.4759 281.647 66.4063 282.02 67.1064 282.687C68.6787 284.26 67.8974 286.552 67.4892 287.464Z" fill="#242424"/>
<path d="M97.284 289.556C97.284 290.552 97.158 291.458 96.906 292.274C96.666 293.078 96.294 293.774 95.79 294.362C95.298 294.95 94.662 295.4 93.882 295.712C93.114 296.024 92.208 296.18 91.164 296.18C90.12 296.18 89.208 296.024 88.428 295.712C87.66 295.388 87.024 294.938 86.52 294.362C86.028 293.774 85.656 293.072 85.404 292.256C85.164 291.44 85.044 290.534 85.044 289.538C85.044 288.206 85.26 287.048 85.692 286.064C86.136 285.08 86.808 284.318 87.708 283.778C88.62 283.226 89.778 282.95 91.182 282.95C92.574 282.95 93.72 283.226 94.62 283.778C95.52 284.318 96.186 285.086 96.618 286.082C97.062 287.066 97.284 288.224 97.284 289.556ZM87.906 289.556C87.906 290.456 88.02 291.23 88.248 291.878C88.476 292.526 88.83 293.024 89.31 293.372C89.79 293.72 90.408 293.894 91.164 293.894C91.944 293.894 92.568 293.72 93.036 293.372C93.516 293.024 93.864 292.526 94.08 291.878C94.308 291.23 94.422 290.456 94.422 289.556C94.422 288.2 94.17 287.138 93.666 286.37C93.162 285.602 92.334 285.218 91.182 285.218C90.414 285.218 89.79 285.392 89.31 285.74C88.83 286.088 88.476 286.586 88.248 287.234C88.02 287.882 87.906 288.656 87.906 289.556ZM99.1362 290.114C99.1362 288.662 99.3162 287.432 99.6762 286.424C100.036 285.404 100.606 284.594 101.386 283.994C102.166 283.382 103.186 282.968 104.446 282.752C105.082 282.644 105.724 282.554 106.372 282.482C107.032 282.398 107.71 282.314 108.406 282.23L108.712 284.57C108.412 284.606 108.082 284.648 107.722 284.696C107.362 284.732 106.996 284.774 106.624 284.822C106.264 284.858 105.916 284.9 105.58 284.948C105.244 284.996 104.938 285.038 104.662 285.074C104.218 285.146 103.828 285.248 103.492 285.38C103.156 285.5 102.874 285.674 102.646 285.902C102.418 286.13 102.238 286.442 102.106 286.838C101.986 287.222 101.908 287.72 101.872 288.332H101.998C102.142 288.104 102.34 287.876 102.592 287.648C102.856 287.42 103.18 287.228 103.564 287.072C103.948 286.916 104.386 286.838 104.878 286.838C105.658 286.838 106.336 287 106.912 287.324C107.488 287.648 107.932 288.128 108.244 288.764C108.556 289.4 108.712 290.192 108.712 291.14C108.712 292.256 108.508 293.186 108.1 293.93C107.692 294.674 107.128 295.238 106.408 295.622C105.688 295.994 104.854 296.18 103.906 296.18C103.186 296.18 102.532 296.048 101.944 295.784C101.356 295.52 100.852 295.13 100.432 294.614C100.012 294.098 99.6882 293.462 99.4602 292.706C99.2442 291.95 99.1362 291.086 99.1362 290.114ZM104.068 294.002C104.452 294.002 104.782 293.918 105.058 293.75C105.346 293.582 105.568 293.306 105.724 292.922C105.892 292.538 105.976 292.022 105.976 291.374C105.976 290.594 105.844 289.976 105.58 289.52C105.328 289.052 104.884 288.818 104.248 288.818C103.864 288.818 103.504 288.914 103.168 289.106C102.844 289.286 102.568 289.496 102.34 289.736C102.112 289.964 101.956 290.162 101.872 290.33C101.872 290.798 101.908 291.254 101.98 291.698C102.052 292.13 102.172 292.52 102.34 292.868C102.508 293.216 102.73 293.492 103.006 293.696C103.294 293.9 103.648 294.002 104.068 294.002ZM109.523 286.172H112.457L114.311 291.698C114.371 291.878 114.419 292.058 114.455 292.238C114.503 292.418 114.539 292.604 114.563 292.796C114.599 292.988 114.623 293.192 114.635 293.408H114.689C114.725 293.096 114.773 292.802 114.833 292.526C114.905 292.238 114.983 291.962 115.067 291.698L116.885 286.172H119.765L115.607 297.26C115.355 297.932 115.025 298.496 114.617 298.952C114.221 299.408 113.759 299.75 113.231 299.978C112.703 300.206 112.127 300.32 111.503 300.32C111.203 300.32 110.939 300.302 110.711 300.266C110.495 300.242 110.303 300.212 110.135 300.176V298.052C110.267 298.076 110.423 298.1 110.603 298.124C110.795 298.148 110.993 298.16 111.197 298.16C111.569 298.16 111.887 298.082 112.151 297.926C112.427 297.77 112.655 297.554 112.835 297.278C113.015 297.014 113.159 296.726 113.267 296.414L113.429 295.928L109.523 286.172ZM123.857 286.172V289.952H127.601V286.172H130.283V296H127.601V291.95H123.857V296H121.175V286.172H123.857ZM137.125 285.974C138.445 285.974 139.453 286.262 140.149 286.838C140.857 287.402 141.211 288.272 141.211 289.448V296H139.339L138.817 294.668H138.745C138.469 295.016 138.181 295.304 137.881 295.532C137.593 295.76 137.257 295.922 136.873 296.018C136.501 296.126 136.039 296.18 135.487 296.18C134.911 296.18 134.389 296.072 133.921 295.856C133.465 295.628 133.105 295.286 132.841 294.83C132.577 294.362 132.445 293.774 132.445 293.066C132.445 292.022 132.811 291.254 133.543 290.762C134.275 290.258 135.373 289.982 136.837 289.934L138.547 289.88V289.448C138.547 288.932 138.409 288.554 138.133 288.314C137.869 288.074 137.497 287.954 137.017 287.954C136.537 287.954 136.069 288.026 135.613 288.17C135.157 288.302 134.701 288.47 134.245 288.674L133.363 286.856C133.891 286.58 134.473 286.364 135.109 286.208C135.757 286.052 136.429 285.974 137.125 285.974ZM137.503 291.482C136.639 291.506 136.039 291.662 135.703 291.95C135.367 292.238 135.199 292.616 135.199 293.084C135.199 293.492 135.319 293.786 135.559 293.966C135.799 294.134 136.111 294.218 136.495 294.218C137.071 294.218 137.557 294.05 137.953 293.714C138.349 293.366 138.547 292.88 138.547 292.256V291.446L137.503 291.482ZM147.283 290.114C147.283 288.662 147.463 287.432 147.823 286.424C148.183 285.404 148.753 284.594 149.533 283.994C150.313 283.382 151.333 282.968 152.593 282.752C153.229 282.644 153.871 282.554 154.519 282.482C155.179 282.398 155.857 282.314 156.553 282.23L156.859 284.57C156.559 284.606 156.229 284.648 155.869 284.696C155.509 284.732 155.143 284.774 154.771 284.822C154.411 284.858 154.063 284.9 153.727 284.948C153.391 284.996 153.085 285.038 152.809 285.074C152.365 285.146 151.975 285.248 151.639 285.38C151.303 285.5 151.021 285.674 150.793 285.902C150.565 286.13 150.385 286.442 150.253 286.838C150.133 287.222 150.055 287.72 150.019 288.332H150.145C150.289 288.104 150.487 287.876 150.739 287.648C151.003 287.42 151.327 287.228 151.711 287.072C152.095 286.916 152.533 286.838 153.025 286.838C153.805 286.838 154.483 287 155.059 287.324C155.635 287.648 156.079 288.128 156.391 288.764C156.703 289.4 156.859 290.192 156.859 291.14C156.859 292.256 156.655 293.186 156.247 293.93C155.839 294.674 155.275 295.238 154.555 295.622C153.835 295.994 153.001 296.18 152.053 296.18C151.333 296.18 150.679 296.048 150.091 295.784C149.503 295.52 148.999 295.13 148.579 294.614C148.159 294.098 147.835 293.462 147.607 292.706C147.391 291.95 147.283 291.086 147.283 290.114ZM152.215 294.002C152.599 294.002 152.929 293.918 153.205 293.75C153.493 293.582 153.715 293.306 153.871 292.922C154.039 292.538 154.123 292.022 154.123 291.374C154.123 290.594 153.991 289.976 153.727 289.52C153.475 289.052 153.031 288.818 152.395 288.818C152.011 288.818 151.651 288.914 151.315 289.106C150.991 289.286 150.715 289.496 150.487 289.736C150.259 289.964 150.103 290.162 150.019 290.33C150.019 290.798 150.055 291.254 150.127 291.698C150.199 292.13 150.319 292.52 150.487 292.868C150.655 293.216 150.877 293.492 151.153 293.696C151.441 293.9 151.795 294.002 152.215 294.002ZM167.138 281.942C167.078 282.566 166.904 283.118 166.616 283.598C166.328 284.066 165.878 284.432 165.266 284.696C164.654 284.96 163.832 285.092 162.8 285.092C161.744 285.092 160.916 284.966 160.316 284.714C159.728 284.45 159.308 284.084 159.056 283.616C158.804 283.148 158.654 282.59 158.606 281.942H161C161.06 282.602 161.228 283.04 161.504 283.256C161.78 283.472 162.23 283.58 162.854 283.58C163.37 283.58 163.79 283.466 164.114 283.238C164.45 282.998 164.648 282.566 164.708 281.942H167.138ZM157.67 286.172H160.604L162.458 291.698C162.518 291.878 162.566 292.058 162.602 292.238C162.65 292.418 162.686 292.604 162.71 292.796C162.746 292.988 162.77 293.192 162.782 293.408H162.836C162.872 293.096 162.92 292.802 162.98 292.526C163.052 292.238 163.13 291.962 163.214 291.698L165.032 286.172H167.912L163.754 297.26C163.502 297.932 163.172 298.496 162.764 298.952C162.368 299.408 161.906 299.75 161.378 299.978C160.85 300.206 160.274 300.32 159.65 300.32C159.35 300.32 159.086 300.302 158.858 300.266C158.642 300.242 158.45 300.212 158.282 300.176V298.052C158.414 298.076 158.57 298.1 158.75 298.124C158.942 298.148 159.14 298.16 159.344 298.16C159.716 298.16 160.034 298.082 160.298 297.926C160.574 297.77 160.802 297.554 160.982 297.278C161.162 297.014 161.306 296.726 161.414 296.414L161.576 295.928L157.67 286.172ZM177.772 296H175.09V288.188H172.624C172.504 289.628 172.354 290.858 172.174 291.878C172.006 292.886 171.79 293.708 171.526 294.344C171.274 294.98 170.95 295.448 170.554 295.748C170.158 296.036 169.672 296.18 169.096 296.18C168.784 296.18 168.502 296.156 168.25 296.108C167.998 296.06 167.77 295.988 167.566 295.892V293.75C167.698 293.798 167.836 293.84 167.98 293.876C168.124 293.912 168.274 293.93 168.43 293.93C168.598 293.93 168.754 293.864 168.898 293.732C169.054 293.6 169.198 293.366 169.33 293.03C169.474 292.694 169.606 292.232 169.726 291.644C169.846 291.056 169.954 290.318 170.05 289.43C170.158 288.53 170.254 287.444 170.338 286.172H177.772V296ZM183.164 290.06C183.164 290.264 183.152 290.516 183.128 290.816C183.116 291.116 183.098 291.422 183.074 291.734C183.062 292.046 183.044 292.322 183.02 292.562C182.996 292.802 182.978 292.97 182.966 293.066L187.502 286.172H190.724V296H188.132V292.076C188.132 291.752 188.144 291.398 188.168 291.014C188.192 290.618 188.216 290.252 188.24 289.916C188.276 289.568 188.3 289.304 188.312 289.124L183.794 296H180.572V286.172H183.164V290.06ZM208.161 286.172V296H193.527V286.172H196.209V293.984H199.503V286.172H202.185V293.984H205.479V286.172H208.161Z" fill="#242424"/>
</svg>
